<svg width="29" height="28" fill="none" xmlns="http://www.w3.org/2000/svg"><g clip-path="url(#a)"><mask id="b" style="mask-type:alpha" maskUnits="userSpaceOnUse" x="0" y="0" width="29" height="28"><path d="M29 14c0 7.73-6.22 14-13.89 14H0V14C0 6.27 6.22 0 13.89 0h1.22C22.78 0 29 6.27 29 14Z" fill="#606060"/></mask><g mask="url(#b)"><path d="M34.27 5.55h-47.45v13.57h47.45V5.55Z" fill="#4EDEA3"/><path d="M4.61-8.47h-31.97v31.59H4.61V-8.47Z" fill="url(#c)"/><path d="M15.49 1.3h-31.64v38.1H15.5V1.3Z" fill="url(#d)"/><path d="M11.2 6.51h-45.15V35.5H11.2v-29Z" fill="url(#e)"/><path d="M32.95 4.23H1.32V35.5h31.63V4.23Z" fill="url(#f)"/><path d="M45.8 4.23H14.17V35.5H45.8V4.23Z" fill="url(#g)"/><path d="M52.07-3.58H20.43v31.25h31.64V-3.58Z" fill="url(#h)"/><path d="M45.8-14.65H-.33v37.44H45.8v-37.44Z" fill="url(#i)"/><path d="M26.7-10.1h-41.53v22.15h41.52V-10.1Z" fill="url(#j)"/><path d="m14.4 13.8-3.2-2.04v2.47l3.2 2.05 7.68-5.78a8.62 8.62 0 0 0-1.01-1.7l-6.66 5Z" fill="#fff"/><path d="M23.07 14a8.5 8.5 0 0 0-.14-1.52l-1.85 1.35V14a6.56 6.56 0 0 1-6.58 6.5A6.56 6.56 0 0 1 7.9 14a6.6 6.6 0 0 1 10.3-5.37l1.7-1.23a8.6 8.6 0 0 0-5.38-1.88A8.52 8.52 0 0 0 5.93 14a8.52 8.52 0 0 0 8.57 8.46A8.52 8.52 0 0 0 23.07 14Z" fill="#fff"/></g></g><defs><radialGradient id="c" cx="0" cy="0" r="1" gradientUnits="userSpaceOnUse" gradientTransform="matrix(15.983 0 0 15.7907 -11.37 7.32)"><stop offset=".15" stop-color="#42E3B4"/><stop offset="1" stop-color="#42E3B4" stop-opacity="0"/></radialGradient><radialGradient id="d" cx="0" cy="0" r="1" gradientUnits="userSpaceOnUse" gradientTransform="matrix(15.8182 0 0 19.0465 -.33 20.35)"><stop offset=".01" stop-color="#A0E720"/><stop offset="1" stop-color="#A0E720" stop-opacity="0"/></radialGradient><radialGradient id="e" cx="0" cy="0" r="1" gradientUnits="userSpaceOnUse" gradientTransform="matrix(22.5739 0 0 14.4883 -11.37 21)"><stop offset=".1" stop-color="#FAED00"/><stop offset="1" stop-color="#FAED00" stop-opacity="0"/></radialGradient><radialGradient id="f" cx="0" cy="0" r="1" gradientUnits="userSpaceOnUse" gradientTransform="matrix(15.8182 0 0 15.6279 17.13 19.86)"><stop offset=".15" stop-color="#00D900"/><stop offset="1" stop-color="#00D900" stop-opacity="0"/></radialGradient><radialGradient id="g" cx="0" cy="0" r="1" gradientUnits="userSpaceOnUse" gradientTransform="matrix(15.8182 0 0 15.6279 29.99 19.86)"><stop offset=".15" stop-color="#21A038"/><stop offset="1" stop-color="#21A038" stop-opacity="0"/></radialGradient><radialGradient id="h" cx="0" cy="0" r="1" gradientUnits="userSpaceOnUse" gradientTransform="matrix(15.8182 0 0 15.6279 36.25 12.05)"><stop offset=".15" stop-color="#21A038"/><stop offset="1" stop-color="#21A038" stop-opacity="0"/></radialGradient><radialGradient id="i" cx="0" cy="0" r="1" gradientUnits="userSpaceOnUse" gradientTransform="matrix(23.0682 0 0 18.7209 22.74 4.07)"><stop offset=".2" stop-color="#0087CD"/><stop offset=".9" stop-color="#0087CD" stop-opacity="0"/></radialGradient><radialGradient id="j" cx="0" cy="0" r="1" gradientUnits="userSpaceOnUse" gradientTransform="matrix(20.7614 0 0 11.0698 5.93 .98)"><stop offset=".1" stop-color="#01A7FA"/><stop offset="1" stop-color="#00ADEE" stop-opacity="0"/></radialGradient><clipPath id="a"><path fill="#fff" d="M0 0h29v28H0z"/></clipPath></defs></svg>

