<svg xmlns="http://www.w3.org/2000/svg" viewBox="0 0 24 24" class="+Wdolk O4LDjX"  style="font-size:14px;" data-v-453d4227=""><path fill-rule="evenodd" clip-rule="evenodd" d="M19.596 14.246c0 4.239-3.268 7.504-7.298 7.504S5 18.485 5 14.246c0-3.989 2.663-6.875 2.975-4.692.312 2.183 1.363 2.552 1.806 2.366.184-.077.21-.606.248-1.371.053-1.075.13-2.618.699-4.033.964-2.396 3.983-5.399 3.983-3.832 0 1.546.393 2.12 2.251 4.83l.073.105c1.92 2.801 2.56 4.226 2.56 6.627Zm-7.006-.557a.897.897 0 1 1-1.794 0 .897.897 0 0 1 1.794 0Zm3.626-.42a.599.599 0 0 1-.007.847l-4.096 4.028a.599.599 0 0 1-.84-.854l4.097-4.028a.599.599 0 0 1 .846.007Zm-.426 5.345a.897.897 0 1 0 0-1.794.897.897 0 0 0 0 1.794Z" fill="green"></path></svg>